<svg xmlns="http://www.w3.org/2000/svg" viewBox="0 0 8192 4096"><path d="M4708.39 1436.89c0 .33.5 5 .5 5h7.28l.28 5.56 8.56.33v17.39l-82.61 78.17 3.5 59.33 61.33 7.67 25.33 4.67-83.67 68.83 4.83 60 85.83 12.33 3.5 69.61-60-4.17-28 14.83 3.83 64 79.67 5.33 11.11 314.94-4.22 11.33-.22 28.78 34.33 10.89 33.78 4.89 64.44 10.67h10.22l32.89-15.11 34.67-7.56 36.44 20s42.67 3.11 45.33 2.67 64.44 0 64.44 0 45.78 20 48 20.89 105.33 8.44 105.33 8.44l176 28.22v5.11l-7.11 6.89 40.22 4 157.78 14.44 91.78 6.67 22-16.44c709.99 31.81 1303.11-15.8 1742-168.22l3.33-32-267.67-98.33 140.33-21.33 66.33-13.67s-4-41-6.33-41-11 .33-11.67-.67-6-123.67-6-123.67l92.67-10.67s3.78-9.89 3.28-9.89-7.5-1.5-7.5-1.5l-1.33-70.33-123.67-15.67-2.5-57.5 110.67-17.5 10.83-17.33-6.67-57.67-83-33.67 50.5-12.17.33-41 15.67-7.67 2.83-21.83 8.17-9.17-.17-42.33-108.17-49.5 103.5-32.5 2.83-7.33-5.5-7-1.83-50.33-82.33-47.17 69.33-22.83 2.17-8.17-3.67-6.67 4.83-4.83.5-40.5-68-43.06 77.78-26.67c-56.41-43.43-140.57-90.51-234.56-138.89l2.17-19.58 15.42-2.83 1.75-4.25 12.75-6.17c-679.58-348.14-1725.58-238.14-2126.58 25.86l36.56 133-28-17.33-82.67 13.33-150.89 107.33 2.89 60.67-89.78 72 9.89 7.22 1.67 6.56-119.89 105.81Z" style="fill:#fff"/></svg>